<?xml version="1.0" encoding="UTF-8" standalone="no"?>
<!-- Generator: Adobe Illustrator 14.0.0, SVG Export Plug-In . SVG Version: 6.00 Build 43363)  -->
<svg xmlns:dc="http://purl.org/dc/elements/1.1/" xmlns:cc="http://creativecommons.org/ns#" xmlns:rdf="http://www.w3.org/1999/02/22-rdf-syntax-ns#" xmlns:svg="http://www.w3.org/2000/svg" xmlns="http://www.w3.org/2000/svg" xmlns:sodipodi="http://sodipodi.sourceforge.net/DTD/sodipodi-0.dtd" xmlns:inkscape="http://www.inkscape.org/namespaces/inkscape" version="1.1" id="Calque_1" x="0px" y="0px" width="438.51501" height="185.92226" viewBox="0 0 438.51501 185.92226" enable-background="new 0 0 800 600" xml:space="preserve" sodipodi:docname="chemistry.svg" inkscape:version="0.92.3 (2405546, 2018-03-11)"><metadata id="metadata4675"><rdf:RDF><cc:Work rdf:about=""><dc:format>image/svg+xml</dc:format><dc:type rdf:resource="http://purl.org/dc/dcmitype/StillImage"/><dc:title/></cc:Work></rdf:RDF></metadata><defs id="defs4673"/><sodipodi:namedview pagecolor="#ffffff" bordercolor="#666666" borderopacity="1" objecttolerance="10" gridtolerance="10" guidetolerance="10" inkscape:pageopacity="0" inkscape:pageshadow="2" inkscape:window-width="3726" inkscape:window-height="2049" id="namedview4671" showgrid="false" fit-margin-top="0" fit-margin-left="0" fit-margin-right="0" fit-margin-bottom="0" inkscape:zoom="0.39333333" inkscape:cx="365.964" inkscape:cy="-92.065" inkscape:window-x="114" inkscape:window-y="55" inkscape:window-maximized="1" inkscape:current-layer="Calque_1"/>


<g id="g4478" transform="translate(-34.035999,-22.01275)">
	<defs id="defs4391">
		<filter id="Adobe_OpacityMaskFilter" filterUnits="userSpaceOnUse" x="34.035999" y="189.104" width="101.678" height="14.93">
			<feColorMatrix type="matrix" values="1 0 0 0 0  0 1 0 0 0  0 0 1 0 0  0 0 0 1 0" id="feColorMatrix4388"/>
		</filter>
	</defs>
	<mask maskUnits="userSpaceOnUse" x="34.036" y="189.104" width="101.678" height="14.93" id="SVGID_1_">
		<g id="g4410" style="filter:url(#Adobe_OpacityMaskFilter)">
			
				<radialGradient id="SVGID_2_" cx="-293.3999" cy="416.8125" r="97.349403" gradientTransform="matrix(0.5337,0,0,-0.0823,241.2666,230.4701)" gradientUnits="userSpaceOnUse">
				<stop offset="0" style="stop-color:#FFFFFF" id="stop4393"/>
				<stop offset="0.0371" style="stop-color:#F1F1F1" id="stop4395"/>
				<stop offset="0.2799" style="stop-color:#9D9D9D" id="stop4397"/>
				<stop offset="0.4945" style="stop-color:#5A5A5A" id="stop4399"/>
				<stop offset="0.6728" style="stop-color:#292929" id="stop4401"/>
				<stop offset="0.8081" style="stop-color:#0B0B0B" id="stop4403"/>
				<stop offset="0.8846" style="stop-color:#000000" id="stop4405"/>
			</radialGradient>
			<ellipse cx="84.679001" cy="196.166" rx="51.958" ry="8.0109997" id="ellipse4408" style="fill:url(#SVGID_2_)"/>
		</g>
	</mask>
	
		<radialGradient id="SVGID_3_" cx="-293.03369" cy="392.4805" r="95.236298" gradientTransform="matrix(0.5337,0,0,-0.0784,241.2666,227.3388)" gradientUnits="userSpaceOnUse">
		<stop offset="0.1099" style="stop-color:#58585A" id="stop4413"/>
		<stop offset="0.2486" style="stop-color:#5B5B5D" id="stop4415"/>
		<stop offset="0.3687" style="stop-color:#666668" id="stop4417"/>
		<stop offset="0.482" style="stop-color:#787879" id="stop4419"/>
		<stop offset="0.5912" style="stop-color:#919192" id="stop4421"/>
		<stop offset="0.6973" style="stop-color:#B1B1B2" id="stop4423"/>
		<stop offset="0.7997" style="stop-color:#D8D8D9" id="stop4425"/>
		<stop offset="0.8846" style="stop-color:#FFFFFF" id="stop4427"/>
	</radialGradient>
	<ellipse mask="url(#SVGID_1_)" cx="84.875" cy="196.56799" rx="50.839001" ry="7.4650002" id="ellipse4430" style="opacity:0.1;fill:url(#SVGID_3_)"/>
	<defs id="defs4435">
		<filter id="Adobe_OpacityMaskFilter_1_" filterUnits="userSpaceOnUse" x="53.216999" y="192.814" width="63.316002" height="7.507">
			<feColorMatrix type="matrix" values="1 0 0 0 0  0 1 0 0 0  0 0 1 0 0  0 0 0 1 0" id="feColorMatrix4432"/>
		</filter>
	</defs>
	<mask maskUnits="userSpaceOnUse" x="53.217" y="192.814" width="63.316" height="7.507" id="SVGID_4_">
		<g id="g4460" style="filter:url(#Adobe_OpacityMaskFilter_1_)">
			
				<radialGradient id="SVGID_5_" cx="-486.79489" cy="1.7578" r="80.129402" gradientTransform="matrix(0.4179,0,0,-0.0541,287.6948,196.717)" gradientUnits="userSpaceOnUse">
				<stop offset="0.1648" style="stop-color:#FFFFFF" id="stop4437"/>
				<stop offset="0.1716" style="stop-color:#FAFAFA" id="stop4439"/>
				<stop offset="0.2538" style="stop-color:#C0C0C0" id="stop4441"/>
				<stop offset="0.3381" style="stop-color:#8D8D8D" id="stop4443"/>
				<stop offset="0.4227" style="stop-color:#626262" id="stop4445"/>
				<stop offset="0.5077" style="stop-color:#3E3E3E" id="stop4447"/>
				<stop offset="0.5932" style="stop-color:#232323" id="stop4449"/>
				<stop offset="0.6794" style="stop-color:#0F0F0F" id="stop4451"/>
				<stop offset="0.7667" style="stop-color:#040404" id="stop4453"/>
				<stop offset="0.8571" style="stop-color:#000000" id="stop4455"/>
			</radialGradient>
			<ellipse cx="84.263" cy="196.62199" rx="33.484001" ry="4.335" id="ellipse4458" style="fill:url(#SVGID_5_)"/>
		</g>
	</mask>
	
		<radialGradient id="SVGID_6_" cx="-485.3291" cy="-114.9375" r="75.791496" gradientTransform="matrix(0.4179,0,0,-0.0495,287.6948,190.8789)" gradientUnits="userSpaceOnUse">
		<stop offset="0.1099" style="stop-color:#BFC0C1" id="stop4463"/>
		<stop offset="0.3219" style="stop-color:#C2C3C4" id="stop4465"/>
		<stop offset="0.5056" style="stop-color:#CDCECF" id="stop4467"/>
		<stop offset="0.6787" style="stop-color:#DFDFE0" id="stop4469"/>
		<stop offset="0.8444" style="stop-color:#F8F8F8" id="stop4471"/>
		<stop offset="0.8846" style="stop-color:#FFFFFF" id="stop4473"/>
	</radialGradient>
	<ellipse mask="url(#SVGID_4_)" cx="84.875" cy="196.56799" rx="31.658001" ry="3.7539999" id="ellipse4476" style="opacity:0.93999999;fill:url(#SVGID_6_)"/>
</g>
<g id="g4495" transform="translate(-34.035999,-22.01275)">
	<linearGradient id="SVGID_7_" gradientUnits="userSpaceOnUse" x1="84.874496" y1="99.9561" x2="84.874496" y2="188.04691">
		<stop offset="0" style="stop-color:#0D0D0D" id="stop4480"/>
		<stop offset="1" style="stop-color:#404040" id="stop4482"/>
	</linearGradient>
	<path d="m 76.448,99.956 v 74.858 c 0,0.014 -10e-4,0.027 -10e-4,0.04 0,7.286 1.141,13.192 8.428,13.192 7.285,0 8.428,-5.906 8.428,-13.192 V 99.956 Z" id="path4485" inkscape:connector-curvature="0" style="fill:url(#SVGID_7_)"/>
	<path d="m 84.875,193.564 c -7.689,0 -13.944,-6.256 -13.944,-13.945 l 0.002,-78.913 h -4.597 c -0.414,0 -0.75,-0.336 -0.75,-0.75 v -3.944 c 0,-0.414 0.336,-0.75 0.75,-0.75 h 37.079 c 0.414,0 0.75,0.336 0.75,0.75 v 3.944 c 0,0.414 -0.336,0.75 -0.75,0.75 h -4.597 v 78.913 c 0,7.69 -6.255,13.945 -13.943,13.945 z M 67.085,99.206 h 4.597 c 0.414,0 0.75,0.336 0.75,0.75 v 79.626 c -0.002,6.899 5.581,12.482 12.442,12.482 6.861,0 12.443,-5.583 12.443,-12.445 V 99.956 c 0,-0.414 0.336,-0.75 0.75,-0.75 h 4.597 V 96.762 H 67.085 Z" id="path4487" inkscape:connector-curvature="0"/>
	<path d="m 95.446,32.188 c 0,-13.567 -21.04,-13.567 -21.04,0 0,2.804 -0.294,5.771 0.112,8.555 v 0 c 2.914,21.822 4.286,44.162 8.34,65.78 1.922,-15.376 2.406,-31.058 6.94,-45.981 2.38,-9.682 5.648,-18.368 5.648,-28.354" id="path4489" inkscape:connector-curvature="0" style="fill:#fecd1a"/>
	<path d="M 120.181,42.909 C 115.459,39.524 108.885,40.611 105.503,45.336 92.69,63.226 86.656,86.812 88.068,108.781 90.991,99.8 94.188,90.75 99.376,82.79 c 4.789,-7.348 11.58,-12.066 17.834,-17.992 0.003,-0.002 0.003,-0.002 0.004,-0.005 2.132,-2.023 3.694,-4.831 5.395,-7.204 3.384,-4.725 2.296,-11.296 -2.428,-14.68" id="path4491" inkscape:connector-curvature="0" style="fill:#622181"/>
	<path d="m 59.774,56.161 c 2.376,-1.702 5.682,-1.155 7.381,1.22 6.624,8.758 9.465,21.053 8.768,31.904 -3.18,-9.777 -7.568,-15.03 -14.654,-22.117 0,0 -10e-4,0 -10e-4,-0.003 -1.062,-1.004 -1.911,-2.417 -2.713,-3.623 -1.701,-2.375 -1.156,-5.682 1.219,-7.381" id="path4493" inkscape:connector-curvature="0" style="fill:#622181"/>
</g>
<g id="g4527" transform="translate(-34.035999,-22.01275)">
	<path d="m 146.906,104.756 -5.462,15.266 h -7.021 L 152.289,71.49 h 8.192 l 17.944,48.532 h -7.256 l -5.617,-15.266 z m 17.242,-4.897 -5.149,-13.969 c -1.171,-3.168 -1.95,-6.049 -2.73,-8.856 h -0.156 c -0.78,2.88 -1.639,5.832 -2.652,8.784 l -5.149,14.041 z" id="path4497" inkscape:connector-curvature="0"/>
	<path d="m 183.732,96.548 c 0,-4.465 -0.156,-8.065 -0.312,-11.377 h 6.164 l 0.312,5.977 h 0.156 c 2.809,-4.249 7.256,-6.77 13.419,-6.77 9.129,0 15.994,7.129 15.994,17.714 0,12.529 -8.27,18.722 -17.164,18.722 -4.993,0 -9.362,-2.016 -11.625,-5.473 h -0.155 v 18.938 h -6.788 V 96.548 Z m 6.788,9.288 c 0,0.937 0.155,1.801 0.312,2.593 1.248,4.393 5.384,7.416 10.299,7.416 7.255,0 11.469,-5.472 11.469,-13.465 0,-6.984 -3.979,-12.961 -11.235,-12.961 -4.681,0 -9.05,3.096 -10.376,7.849 -0.234,0.792 -0.468,1.729 -0.468,2.592 v 5.976 z" id="path4499" inkscape:connector-curvature="0"/>
	<path d="m 252.699,111.669 c 0,3.024 0.156,5.977 0.624,8.353 h -6.241 l -0.547,-4.393 h -0.233 c -2.106,2.736 -6.164,5.185 -11.547,5.185 -7.646,0 -11.547,-4.969 -11.547,-10.009 0,-8.425 8.114,-13.033 22.703,-12.961 v -0.721 c 0,-2.88 -0.857,-8.064 -8.582,-8.064 -3.511,0 -7.178,1.008 -9.83,2.593 l -1.561,-4.177 c 3.121,-1.872 7.646,-3.097 12.405,-3.097 11.547,0 14.355,7.273 14.355,14.258 v 13.033 z m -6.632,-9.433 c -7.489,-0.145 -15.993,1.08 -15.993,7.849 0,4.104 2.964,6.048 6.475,6.048 4.916,0 8.036,-2.88 9.129,-5.832 0.233,-0.648 0.39,-1.368 0.39,-2.017 v -6.048 z" id="path4501" inkscape:connector-curvature="0"/>
	<path d="m 288.743,118.726 c -1.794,0.864 -5.773,2.088 -10.845,2.088 -11.391,0 -18.802,-7.2 -18.802,-17.857 0,-10.729 7.958,-18.506 20.284,-18.506 4.058,0 7.646,0.937 9.519,1.801 l -1.561,4.896 c -1.638,-0.864 -4.213,-1.656 -7.958,-1.656 -8.659,0 -13.341,5.904 -13.341,13.177 0,8.064 5.617,13.033 13.107,13.033 3.9,0 6.476,-0.937 8.426,-1.729 z" id="path4503" inkscape:connector-curvature="0"/>
	<path d="m 294.829,68.897 h 6.865 v 21.745 h 0.156 c 1.093,-1.8 2.809,-3.384 4.915,-4.464 2.028,-1.08 4.447,-1.801 7.021,-1.801 5.071,0 13.186,2.881 13.186,14.905 v 20.738 h -6.865 v -20.018 c 0,-5.616 -2.263,-10.369 -8.738,-10.369 -4.447,0 -7.958,2.88 -9.206,6.337 -0.391,0.864 -0.469,1.8 -0.469,3.024 v 21.025 h -6.865 z" id="path4505" inkscape:connector-curvature="0"/>
	<path d="m 340.001,103.748 c 0.155,8.568 6.085,12.097 12.95,12.097 4.916,0 7.88,-0.792 10.455,-1.8 l 1.17,4.536 c -2.418,1.009 -6.554,2.232 -12.561,2.232 -11.625,0 -18.568,-7.129 -18.568,-17.642 0,-10.513 6.709,-18.794 17.71,-18.794 12.327,0 15.604,10.01 15.604,16.418 0,1.296 -0.156,2.304 -0.234,2.952 h -26.526 z m 20.128,-4.536 c 0.078,-4.032 -1.794,-10.297 -9.518,-10.297 -6.943,0 -9.986,5.904 -10.532,10.297 z" id="path4507" inkscape:connector-curvature="0"/>
	<path d="m 176.241,190.653 c -2.185,1.008 -7.1,2.16 -13.497,2.16 -18.179,0 -27.541,-10.513 -27.541,-24.338 0,-16.562 12.795,-25.778 28.711,-25.778 6.163,0 10.845,1.152 12.951,2.16 l -2.419,8.713 c -2.418,-0.937 -5.773,-1.801 -9.986,-1.801 -9.44,0 -16.773,5.257 -16.773,16.058 0,9.721 6.241,15.842 16.852,15.842 3.589,0 7.567,-0.721 9.908,-1.584 z" id="path4509" inkscape:connector-curvature="0"/>
	<path d="m 181.467,140.897 h 11.859 v 20.089 h 0.155 c 1.249,-1.512 2.81,-2.735 4.682,-3.6 1.794,-0.864 3.979,-1.368 6.163,-1.368 7.568,0 13.342,4.824 13.342,15.409 v 20.594 h -11.859 v -19.37 c 0,-4.608 -1.716,-7.776 -6.163,-7.776 -3.121,0 -5.071,1.872 -5.93,3.816 -0.312,0.72 -0.39,1.656 -0.39,2.448 v 20.882 h -11.859 z" id="path4511" inkscape:connector-curvature="0"/>
	<path d="m 234.364,177.908 c 0.39,4.536 5.227,6.696 10.766,6.696 4.058,0 7.334,-0.504 10.533,-1.439 l 1.56,7.416 c -3.9,1.44 -8.659,2.232 -13.809,2.232 -12.951,0 -20.363,-6.984 -20.363,-18.002 0,-8.929 6.008,-18.793 19.271,-18.793 12.327,0 17.009,8.856 17.009,17.569 0,1.872 -0.234,3.528 -0.391,4.32 h -24.576 z m 13.965,-7.488 c 0,-2.664 -1.248,-7.129 -6.71,-7.129 -4.993,0 -7.021,4.177 -7.333,7.129 z" id="path4513" inkscape:connector-curvature="0"/>
	<path d="m 264.479,168.043 c 0,-4.392 -0.155,-8.137 -0.312,-11.232 h 9.986 l 0.546,4.752 h 0.234 c 1.638,-2.231 4.993,-5.544 11.546,-5.544 4.916,0 8.816,2.304 10.455,5.977 h 0.156 c 1.404,-1.872 3.12,-3.24 4.915,-4.249 2.106,-1.151 4.446,-1.728 7.256,-1.728 7.333,0 12.873,4.752 12.873,15.265 v 20.738 h -11.547 v -19.153 c 0,-5.112 -1.795,-8.065 -5.617,-8.065 -2.731,0 -4.682,1.729 -5.462,3.816 -0.312,0.792 -0.468,1.944 -0.468,2.809 v 20.594 h -11.547 v -19.729 c 0,-4.465 -1.717,-7.489 -5.461,-7.489 -3.043,0 -4.838,2.16 -5.54,3.961 -0.39,0.864 -0.468,1.872 -0.468,2.736 v 20.521 h -11.547 v -23.98 z" id="path4515" inkscape:connector-curvature="0"/>
	<path d="m 341.874,147.018 c 0,3.024 -2.496,5.473 -6.397,5.473 -3.745,0 -6.241,-2.448 -6.163,-5.473 -0.078,-3.168 2.418,-5.545 6.241,-5.545 3.823,0 6.24,2.377 6.319,5.545 z m -12.249,45.003 V 156.81 h 11.859 v 35.211 z" id="path4517" inkscape:connector-curvature="0"/>
	<path d="m 348.972,182.444 c 2.185,1.225 6.71,2.665 10.221,2.665 3.589,0 5.071,-1.152 5.071,-2.953 0,-1.8 -1.17,-2.664 -5.617,-4.032 -7.88,-2.448 -10.923,-6.408 -10.845,-10.513 0,-6.625 6.086,-11.593 15.525,-11.593 4.447,0 8.427,0.936 10.767,2.016 l -2.106,7.561 c -1.716,-0.863 -4.993,-2.016 -8.27,-2.016 -2.887,0 -4.525,1.08 -4.525,2.88 0,1.656 1.482,2.521 6.163,4.032 7.256,2.305 10.299,5.688 10.377,10.873 0,6.553 -5.617,11.449 -16.54,11.449 -4.993,0 -9.44,-1.08 -12.327,-2.521 z" id="path4519" inkscape:connector-curvature="0"/>
	<path d="m 394.222,147.233 v 9.577 h 8.504 v 8.064 h -8.504 v 12.745 c 0,4.248 1.092,6.192 4.681,6.192 1.639,0 2.341,-0.071 3.511,-0.288 l 0.078,8.281 c -1.561,0.576 -4.37,1.008 -7.724,1.008 -3.823,0 -7.021,-1.296 -8.895,-3.097 -2.184,-2.088 -3.276,-5.472 -3.276,-10.44 v -14.401 h -5.071 v -8.064 h 5.071 v -6.625 z" id="path4521" inkscape:connector-curvature="0"/>
	<path d="m 407.641,168.403 c 0,-5.185 -0.156,-8.568 -0.312,-11.593 h 10.221 l 0.391,6.48 h 0.311 c 1.951,-5.112 6.633,-7.272 10.299,-7.272 1.092,0 1.639,0 2.498,0.144 v 10.369 c -0.859,-0.216 -1.873,-0.36 -3.199,-0.36 -4.369,0 -7.334,2.16 -8.115,5.545 -0.154,0.72 -0.232,1.584 -0.232,2.448 v 17.857 h -11.859 v -23.618 z" id="path4523" inkscape:connector-curvature="0"/>
	<path d="m 445.635,156.811 5.695,17.281 c 0.623,2.088 1.404,4.681 1.871,6.553 h 0.234 c 0.547,-1.872 1.17,-4.536 1.717,-6.553 l 4.682,-17.281 h 12.717 l -8.895,23.186 c -5.461,13.97 -9.129,19.586 -13.42,23.114 -4.135,3.312 -8.504,4.465 -11.469,4.824 l -2.496,-9.288 c 1.482,-0.217 3.355,-0.864 5.15,-1.873 1.793,-0.863 3.744,-2.592 4.914,-4.392 0.391,-0.504 0.625,-1.08 0.625,-1.584 0,-0.36 -0.078,-0.937 -0.547,-1.801 L 432.448,156.81 h 13.187 z" id="path4525" inkscape:connector-curvature="0"/>
</g>
</svg>